<svg xmlns="http://www.w3.org/2000/svg" viewBox="0 0 512 512" width="100%" height="100%">
  <rect width="512" height="512" rx="110" fill="#ffffff"/>
  
  <g transform="translate(45, 45) scale(0.82)">
    <path d="M190,50 C120,50 50,120 50,210 C50,330 150,420 230,420 C180,390 140,320 140,250 C140,160 210,100 240,80 Z" fill="#ea7317"/>
    <path d="M195,190 L195,300 C195,315 210,325 230,310 C210,290 220,240 220,190 Z" fill="#ea7317"/>
    <path d="M260,230 L280,170 L305,230 L335,170 L360,230" stroke="#2364aa" stroke-width="18" stroke-linecap="round" stroke-linejoin="round" fill="none"/>
    <path d="M300,50 C380,50 450,120 450,210 C450,310 370,390 220,340 C310,360 400,300 400,210 C400,140 350,70 300,50 Z" fill="#2364aa"/>
  </g>
</svg>
